<?xml version="1.0" encoding="UTF-8"?>
<svg xmlns="http://www.w3.org/2000/svg" version="1.1" xmlns:xlink="http://www.w3.org/1999/xlink" viewBox="0 0 500 500">
  <defs>
    <style>
      .cls-1 {
        fill: url(#linear-gradient-13);
      }

      .cls-2 {
        fill: url(#linear-gradient-2);
      }

      .cls-3 {
        fill: url(#linear-gradient-10);
      }

      .cls-4 {
        fill: url(#linear-gradient-12);
      }

      .cls-5 {
        fill: #fff;
      }

      .cls-6, .cls-7 {
        fill: #0000a9;
      }

      .cls-6, .cls-8 {
        opacity: .1;
      }

      .cls-9 {
        fill: url(#linear-gradient-4);
      }

      .cls-10 {
        mix-blend-mode: overlay;
      }

      .cls-10, .cls-7 {
        opacity: .15;
      }

      .cls-11 {
        fill: url(#linear-gradient-3);
      }

      .cls-12 {
        fill: url(#linear-gradient-5);
      }

      .cls-13 {
        isolation: isolate;
      }

      .cls-14 {
        fill: url(#linear-gradient-8);
      }

      .cls-15 {
        stroke: #fff;
        stroke-width: .96px;
      }

      .cls-15, .cls-8 {
        fill: none;
        stroke-miterlimit: 10;
      }

      .cls-16 {
        fill: url(#linear-gradient-7);
      }

      .cls-17 {
        fill: url(#linear-gradient-9);
      }

      .cls-18 {
        fill: url(#linear-gradient-11);
      }

      .cls-19 {
        fill: url(#linear-gradient-6);
      }

      .cls-20 {
        fill: url(#linear-gradient);
      }

      .cls-21 {
        fill: #444375;
      }

      .cls-8 {
        stroke: #0000a9;
      }
    </style>
    <linearGradient id="linear-gradient" x1="453.68" y1="1599.08" x2="160.95" y2="-120.73" gradientUnits="userSpaceOnUse">
      <stop offset="0" stop-color="#bfd6ff"/>
      <stop offset="1" stop-color="#fff"/>
    </linearGradient>
    <linearGradient id="linear-gradient-2" x1="112.95" y1="299.58" x2="509.24" y2="6.82" gradientTransform="translate(-26.74 54.21) rotate(-8.08)" gradientUnits="userSpaceOnUse">
      <stop offset="0" stop-color="#ffd6ff"/>
      <stop offset="1" stop-color="#fff"/>
    </linearGradient>
    <linearGradient id="linear-gradient-3" x1="27.91" y1="28.1" x2="204.93" y2="166.66" gradientUnits="userSpaceOnUse">
      <stop offset="0" stop-color="#ffa495"/>
      <stop offset="1" stop-color="#ff5c96"/>
    </linearGradient>
    <linearGradient id="linear-gradient-4" x1="568.64" y1="437.16" x2="230.93" y2="258.02" gradientTransform="matrix(1,0,0,1,0,0)" xlink:href="#linear-gradient-2"/>
    <linearGradient id="linear-gradient-5" x1="168.18" y1="71.77" x2="313.8" y2="338.33" xlink:href="#linear-gradient-3"/>
    <linearGradient id="linear-gradient-6" x1="298.97" y1="103.93" x2="311.93" y2="147.96" xlink:href="#linear-gradient-3"/>
    <linearGradient id="linear-gradient-7" x1="122.41" y1="117.64" x2="140.32" y2="182.44" xlink:href="#linear-gradient-3"/>
    <linearGradient id="linear-gradient-8" x1="289.55" y1="205.16" x2="233.48" y2="389.23" gradientTransform="translate(-26.74 54.21) rotate(-8.08)" gradientUnits="userSpaceOnUse">
      <stop offset="0" stop-color="#72ffad"/>
      <stop offset="1" stop-color="#22668d"/>
    </linearGradient>
    <linearGradient id="linear-gradient-9" x1="321.65" y1="256.07" x2="402.07" y2="219.48" gradientUnits="userSpaceOnUse">
      <stop offset="0" stop-color="#8b9cff"/>
      <stop offset="1" stop-color="#5454ff"/>
    </linearGradient>
    <linearGradient id="linear-gradient-10" x1="516.65" y1="309.4" x2="326.46" y2="214.88" gradientUnits="userSpaceOnUse">
      <stop offset="0" stop-color="#ffa495"/>
      <stop offset="1" stop-color="#ffbfbd"/>
    </linearGradient>
    <linearGradient id="linear-gradient-11" x1="91.65" y1="603.3" x2="13.89" y2="57.48" xlink:href="#linear-gradient"/>
    <linearGradient id="linear-gradient-12" x1="412.82" y1="557.55" x2="335.06" y2="11.73" xlink:href="#linear-gradient"/>
    <linearGradient id="linear-gradient-13" x1="436.79" y1="554.13" x2="359.03" y2="8.31" xlink:href="#linear-gradient"/>
  </defs>
  <!-- Generator: Adobe Illustrator 28.6.0, SVG Export Plug-In . SVG Version: 1.2.0 Build 709)  -->
  <g class="cls-13">
    <g id="OBJECTS">
      <g>
        <path class="cls-20" d="M115.76,215.76c-21.15,19.82-82.33,14.72-77.19,61.87,5.15,47.15,48.01,6.94,60.31,17.61,12.3,10.67-38.58,8.96-58.02,41.55-19.44,32.59-13.15,64.94,26.3,68.2,39.45,3.27,136.2-42.27,154.15-37.51,17.95,4.76-24.09,5.33-16.8,27.06,7.3,21.73,149.66-37.19,159.95-52.62,10.29-15.42-34.1-17.67-26.2-29.12,7.9-11.46,101.67-37.62,97.09-83.43-4.57-45.81-80.52-3.66-103.52-17.1-23-13.44,22.77-11.61,43.42-27.3,20.65-15.7-1.06-32.48-57.96-20.66-56.89,11.82-201.55,51.46-201.55,51.46Z"/>
        <g>
          <g>
            <g>
              <path class="cls-2" d="M321.64,160.26l21.08,148.4c1.28,8.98-4.44,17.54-12.81,19.13l-207.16,39.34c-10.16,1.93-19.59-4.6-21.01-14.6l-23.48-165.29,243.38-26.98Z"/>
              <path class="cls-11" d="M321.66,160.26l-222.77,24.7-20.63,2.28-2.79-19.63c-1.41-10.01,5.84-18.9,16.14-19.86l20.34-1.92,9.37-.9,16.62-1.57,163.58-15.5c8.47-.83,16.36,5.81,17.64,14.79l2.5,17.61Z"/>
              <path class="cls-9" d="M338.28,158.42l20.91,147.25c1.27,8.91-4.36,17.39-12.59,18.95l-203.77,38.7c-9.98,1.9-19.27-4.59-20.67-14.51l-23.27-163.86,239.39-26.54Z"/>
              <path class="cls-12" d="M338.28,158.43l-16.62,1.83-222.77,24.7-2.76-19.47c-1.41-9.91,5.71-18.7,15.82-19.67l9.37-.9,16.62-1.57,158.42-15.01,5.17-.48,12.86-1.22,4.04-.38c8.34-.8,16.1,5.77,17.39,14.69l2.47,17.48Z"/>
              <path class="cls-19" d="M314.09,148.1c-6.61,2.05-9.91-11.26-17.74-19.76l5.17-.48,12.86-1.22c5.2,8.92,6.35,19.44-.29,21.46Z"/>
              <path class="cls-16" d="M135.52,164.3c-5.33.16-9.05-11.36-14.21-19.38l16.62-1.57c4.68,12.64,3.27,20.79-2.41,20.95Z"/>
              <path class="cls-7" d="M262.33,193.5l-68.18,8.39c-2.75.34-5.3-1.65-5.7-4.43h0c-.4-2.79,1.52-5.31,4.27-5.64l68.23-8.08c2.58-.31,4.98,1.63,5.36,4.32h0c.38,2.69-1.39,5.13-3.98,5.45Z"/>
              <g>
                <path class="cls-7" d="M165.54,242.44l-29.06,4.04c-2.26.32-4.36-1.24-4.68-3.48l-2.43-17.07c-.32-2.24,1.27-4.29,3.53-4.58l29.1-3.73c2.21-.28,4.25,1.27,4.56,3.48l2.39,16.8c.31,2.2-1.22,4.24-3.42,4.54Z"/>
                <path class="cls-7" d="M207.11,236.66l-28.01,3.9c-2.18.3-4.21-1.23-4.52-3.43l-2.38-16.76c-.31-2.2,1.21-4.2,3.39-4.48l28.05-3.59c2.13-.27,4.1,1.26,4.41,3.42l2.34,16.5c.31,2.16-1.16,4.15-3.29,4.45Z"/>
                <path class="cls-7" d="M247.2,231.08l-27.01,3.76c-2.1.29-4.06-1.22-4.37-3.38l-2.34-16.46c-.31-2.16,1.16-4.12,3.26-4.39l27.05-3.47c2.05-.26,3.96,1.25,4.26,3.37l2.3,16.21c.3,2.12-1.11,4.08-3.16,4.36Z"/>
                <path class="cls-7" d="M285.89,225.7l-26.07,3.63c-2.03.28-3.92-1.21-4.22-3.32l-2.3-16.17c-.3-2.12,1.11-4.05,3.14-4.31l26.11-3.34c1.98-.25,3.83,1.23,4.12,3.32l2.26,15.92c.3,2.09-1.06,4-3.04,4.28Z"/>
                <path class="cls-6" d="M323.25,220.5l-25.18,3.5c-1.96.27-3.79-1.19-4.09-3.28l-2.26-15.89c-.3-2.08,1.06-3.97,3.02-4.22l25.22-3.23c1.91-.25,3.7,1.22,3.99,3.27l2.22,15.65c.29,2.05-1.02,3.93-2.93,4.19Z"/>
              </g>
              <g>
                <path class="cls-7" d="M170,273.83l-29,4.44c-2.26.35-4.35-1.19-4.67-3.42l-2.43-17.07c-.32-2.24,1.26-4.31,3.53-4.63l29.04-4.13c2.2-.31,4.24,1.22,4.55,3.42l2.39,16.8c.31,2.2-1.21,4.26-3.41,4.6Z"/>
                <path class="cls-7" d="M211.49,267.48l-27.95,4.28c-2.18.33-4.2-1.18-4.51-3.37l-2.38-16.76c-.31-2.2,1.21-4.23,3.39-4.54l27.99-3.98c2.12-.3,4.09,1.21,4.4,3.37l2.34,16.5c.31,2.16-1.16,4.18-3.28,4.5Z"/>
                <path class="cls-7" d="M251.5,261.36l-26.96,4.13c-2.1.32-4.05-1.17-4.36-3.32l-2.34-16.46c-.31-2.16,1.15-4.15,3.26-4.45l27-3.83c2.05-.29,3.95,1.2,4.25,3.32l2.3,16.2c.3,2.12-1.11,4.1-3.16,4.41Z"/>
                <path class="cls-7" d="M290.12,255.44l-26.02,3.98c-2.03.31-3.92-1.16-4.22-3.27l-2.3-16.17c-.3-2.12,1.1-4.07,3.13-4.36l26.06-3.7c1.98-.28,3.82,1.18,4.12,3.27l2.26,15.92c.3,2.09-1.06,4.02-3.04,4.33Z"/>
                <path class="cls-6" d="M327.4,249.74l-25.13,3.85c-1.96.3-3.78-1.14-4.08-3.23l-2.26-15.89c-.3-2.08,1.06-4,3.01-4.27l25.17-3.57c1.91-.27,3.69,1.17,3.98,3.22l2.22,15.65c.29,2.05-1.02,3.95-2.92,4.24Z"/>
              </g>
              <g>
                <path class="cls-7" d="M174.46,305.22l-28.94,4.84c-2.26.38-4.34-1.13-4.66-3.37l-2.43-17.07c-.32-2.24,1.26-4.34,3.52-4.69l28.99-4.52c2.2-.34,4.23,1.16,4.54,3.37l2.39,16.8c.31,2.2-1.21,4.28-3.4,4.65Z"/>
                <path class="cls-7" d="M215.87,298.3l-27.9,4.66c-2.17.36-4.19-1.12-4.5-3.32l-2.38-16.76c-.31-2.2,1.2-4.25,3.38-4.59l27.94-4.36c2.12-.33,4.08,1.15,4.39,3.32l2.34,16.5c.31,2.16-1.16,4.2-3.27,4.55Z"/>
                <path class="cls-7" d="M255.8,291.63l-26.91,4.5c-2.1.35-4.05-1.11-4.35-3.27l-2.34-16.46c-.31-2.16,1.15-4.17,3.25-4.5l26.95-4.2c2.04-.32,3.94,1.14,4.25,3.27l2.3,16.21c.3,2.12-1.11,4.12-3.15,4.46Z"/>
                <path class="cls-14" d="M294.34,285.19l-25.97,4.34c-2.02.34-3.91-1.11-4.21-3.22l-2.3-16.17c-.3-2.12,1.1-4.09,3.13-4.41l26.01-4.06c1.97-.31,3.81,1.13,4.11,3.22l2.26,15.92c.3,2.09-1.06,4.04-3.03,4.37Z"/>
                <path class="cls-8" d="M331.56,278.97l-25.08,4.19c-1.95.33-3.78-1.1-4.07-3.18l-2.26-15.89c-.3-2.08,1.05-4.02,3.01-4.32l25.12-3.92c1.91-.3,3.69,1.12,3.98,3.18l2.22,15.65c.29,2.05-1.01,3.97-2.92,4.29Z"/>
              </g>
              <g>
                <path class="cls-8" d="M178.92,336.61l-28.89,5.23c-2.25.41-4.34-1.07-4.65-3.31l-2.43-17.07c-.32-2.24,1.26-4.36,3.51-4.75l28.93-4.92c2.19-.37,4.22,1.11,4.54,3.31l2.39,16.8c.31,2.2-1.21,4.31-3.4,4.71Z"/>
                <path class="cls-7" d="M220.25,329.12l-27.84,5.05c-2.17.39-4.18-1.07-4.5-3.26l-2.38-16.76c-.31-2.2,1.2-4.28,3.37-4.65l27.89-4.74c2.12-.36,4.08,1.1,4.38,3.26l2.34,16.5c.31,2.16-1.15,4.22-3.27,4.61Z"/>
                <path class="cls-7" d="M260.1,321.9l-26.85,4.87c-2.09.38-4.04-1.06-4.34-3.22l-2.34-16.46c-.31-2.16,1.15-4.19,3.24-4.55l26.9-4.57c2.04-.35,3.94,1.09,4.24,3.22l2.3,16.21c.3,2.12-1.1,4.14-3.14,4.51Z"/>
                <path class="cls-7" d="M298.57,314.93l-25.92,4.7c-2.02.37-3.9-1.05-4.2-3.17l-2.3-16.17c-.3-2.12,1.1-4.12,3.12-4.46l25.96-4.41c1.97-.33,3.8,1.09,4.1,3.17l2.26,15.92c.3,2.09-1.06,4.07-3.02,4.42Z"/>
                <path class="cls-6" d="M335.71,308.2l-25.03,4.54c-1.95.35-3.77-1.05-4.07-3.13l-2.26-15.89c-.3-2.08,1.05-4.04,3-4.37l25.07-4.26c1.9-.32,3.68,1.08,3.97,3.13l2.22,15.65c.29,2.05-1.01,3.99-2.91,4.34Z"/>
              </g>
              <polyline class="cls-15" points="273.59 276.05 279.07 280.29 286.41 269.79"/>
            </g>
            <path class="cls-21" d="M134.42,161.86c-2.18-1.09-2.93-3.92-1.45-5.86,7.82-10.21,3.63-22.38-4.69-24.81-9.29-2.72-15.82,3.48-18.87,14.87l-7.96.74s4.91-28.99,27.4-23.75c22.28,5.19,18.07,27.63,10.59,37.59-1.17,1.56-3.27,2.09-5.02,1.22h0Z"/>
            <path class="cls-21" d="M312.68,145.02c-2.18-1.09-2.93-3.92-1.45-5.86,7.82-10.21,3.63-22.38-4.69-24.81-9.29-2.72-15.82,3.48-18.87,14.87l-7.96.74s4.91-28.99,27.4-23.75c22.28,5.19,18.07,27.63,10.59,37.6-1.17,1.56-3.27,2.09-5.02,1.22h0Z"/>
          </g>
          <g>
            <g>
              <polyline class="cls-5" points="326.25 247.35 286.41 277.63 331.85 256.66"/>
              <path class="cls-17" d="M334.89,275.22l-23.61-39.28c-.6-1,.31-2.24,1.45-1.95l8.32,2.09c1.34.34,2.76.16,3.98-.49l33.93-18.14c1.75-.94,3.92-.33,4.95,1.36l10.83,18.02c1.02,1.7.53,3.9-1.12,5.01l-31.97,21.47c-1.15.77-1.97,1.94-2.3,3.29l-2.05,8.28c-.28,1.14-1.8,1.37-2.4.36Z"/>
            </g>
            <path class="cls-3" d="M475,262.26s-1.57,12.03-10.36,23.93c-3.46,4.68-8.08,9.37-14.21,13.25-19.06-11.84-48.22-36.99-56.05-41.38-4.23-2.41-13.22-1.38-21.49-.58h-.03c-6.9.64-13.35,1.15-16.2-.58-.64-.38-1.19-.77-1.67-1.15-4.36-3.4-2.89-6.7,3.95-8.95,7.64-2.47,11.81-7.22,11.45-11.23-.38-4.01-10.88-11.26-14.89-13.54s-7.6,8.15-11.81,6.54c-1.64-.61-1.54-2.89-.51-5.74,1.64-4.52,5.61-10.52,8.89-13.57,5.36-4.94,28.39,3.63,36.8,10.68,8.37,7.06,10.65,11.04,20.37,16.2,9.72,5.13,65.77,26.11,65.77,26.11Z"/>
            <path class="cls-10" d="M368.23,247.34c-8.41,4.04-12.8,4.14-13.25,8.41-4.36-3.4-2.89-6.7,3.95-8.95,7.64-2.47,11.81-7.22,11.45-11.23-.38-4.01-10.88-11.26-14.89-13.54s-7.6,8.15-11.81,6.54c-1.64-.61-1.54-2.89-.51-5.74,5.29-.9,8.34-3.79,11.84-3.37,4.72.58,16.49,8.82,20.24,15.4,3.79,6.61,3.63,7.35-7.03,12.48Z"/>
            <path class="cls-10" d="M464.64,286.2c-3.46,4.68-8.08,9.37-14.21,13.25-19.06-11.84-48.22-36.99-56.05-41.38-4.23-2.41-13.22-1.38-21.49-.58,4.97-2.47,7.99-5.65,18.06-3.85,17.52,3.08,22.49,17.2,48.8,26.72,10.43,3.79,18.7,5.33,24.89,5.84Z"/>
          </g>
        </g>
        <path class="cls-18" d="M46.44,210.7c0,5.92-4.8,10.72-10.72,10.72s-10.72-4.8-10.72-10.72,4.8-10.72,10.72-10.72,10.72,4.8,10.72,10.72Z"/>
        <path class="cls-4" d="M398.95,384.93c0,5.92-4.8,10.72-10.72,10.72s-10.72-4.8-10.72-10.72,4.8-10.72,10.72-10.72,10.72,4.8,10.72,10.72Z"/>
        <circle class="cls-1" cx="372.89" cy="105.57" r="10.72"/>
      </g>
    </g>
  </g>
</svg>