<?xml version="1.0" encoding="UTF-8"?>
<svg xmlns="http://www.w3.org/2000/svg" version="1.1" xmlns:xlink="http://www.w3.org/1999/xlink" viewBox="0 0 500 500">
  <defs>
    <style>
      .cls-1 {
        fill: url(#linear-gradient-15);
      }

      .cls-2 {
        fill: url(#linear-gradient-13);
      }

      .cls-3 {
        fill: url(#linear-gradient-28);
      }

      .cls-4 {
        fill: url(#linear-gradient-2);
      }

      .cls-5 {
        fill: url(#linear-gradient-25);
      }

      .cls-6 {
        fill: url(#linear-gradient-10);
      }

      .cls-7 {
        fill: url(#linear-gradient-12);
      }

      .cls-8 {
        fill: url(#linear-gradient-27);
      }

      .cls-9 {
        fill: #fff;
      }

      .cls-9, .cls-10 {
        mix-blend-mode: overlay;
        opacity: .25;
      }

      .cls-11 {
        fill: url(#linear-gradient-26);
      }

      .cls-12 {
        fill: url(#linear-gradient-4);
      }

      .cls-13 {
        fill: url(#linear-gradient-30);
      }

      .cls-14 {
        fill: url(#linear-gradient-3);
      }

      .cls-15 {
        fill: url(#linear-gradient-5);
      }

      .cls-16 {
        fill: url(#linear-gradient-22);
      }

      .cls-17 {
        fill: url(#linear-gradient-24);
      }

      .cls-18 {
        isolation: isolate;
      }

      .cls-19 {
        fill: url(#linear-gradient-8);
      }

      .cls-20 {
        stroke: #2f2f54;
        stroke-width: 2px;
      }

      .cls-20, .cls-21 {
        fill: none;
        stroke-miterlimit: 10;
      }

      .cls-22 {
        fill: url(#linear-gradient-14);
      }

      .cls-23 {
        fill: url(#linear-gradient-29);
      }

      .cls-24 {
        fill: url(#linear-gradient-20);
      }

      .cls-25 {
        fill: url(#linear-gradient-17);
      }

      .cls-26 {
        fill: url(#linear-gradient-7);
      }

      .cls-27 {
        fill: url(#linear-gradient-9);
      }

      .cls-28 {
        fill: url(#linear-gradient-11);
      }

      .cls-29 {
        fill: url(#linear-gradient-19);
      }

      .cls-30 {
        fill: url(#linear-gradient-6);
      }

      .cls-21 {
        opacity: .15;
        stroke: #000;
        stroke-width: .5px;
      }

      .cls-31 {
        fill: url(#linear-gradient-21);
      }

      .cls-32 {
        fill: url(#linear-gradient-32);
      }

      .cls-33 {
        fill: url(#linear-gradient-16);
      }

      .cls-34 {
        fill: #2f2f54;
      }

      .cls-35 {
        fill: url(#linear-gradient);
      }

      .cls-36 {
        fill: url(#linear-gradient-23);
      }

      .cls-37 {
        fill: url(#linear-gradient-31);
      }

      .cls-38 {
        fill: url(#linear-gradient-18);
      }
    </style>
    <linearGradient id="linear-gradient" x1="82.42" y1="346.48" x2="82.32" y2="358.48" gradientUnits="userSpaceOnUse">
      <stop offset="0" stop-color="#bfd6ff"/>
      <stop offset="1" stop-color="#fff"/>
    </linearGradient>
    <linearGradient id="linear-gradient-2" x1="249.91" y1="190.8" x2="629.4" y2="591.65" xlink:href="#linear-gradient"/>
    <linearGradient id="linear-gradient-3" x1="279.05" y1="72.42" x2="460.14" y2="442.74" gradientUnits="userSpaceOnUse">
      <stop offset="0" stop-color="#fff" stop-opacity="0"/>
      <stop offset="1" stop-color="#fff"/>
    </linearGradient>
    <linearGradient id="linear-gradient-4" x1="228.06" y1="29.7" x2="228.74" y2="410.2" xlink:href="#linear-gradient-3"/>
    <linearGradient id="linear-gradient-5" x1="82.73" y1="350.23" x2="82.09" y2="357.22" gradientUnits="userSpaceOnUse">
      <stop offset="0" stop-color="#7ab1ff"/>
      <stop offset="1" stop-color="#5454ff"/>
    </linearGradient>
    <linearGradient id="linear-gradient-6" x1="252.91" y1="289.98" x2="279.87" y2="409.53" xlink:href="#linear-gradient-5"/>
    <linearGradient id="linear-gradient-7" x1="199.8" y1="251.66" x2="208.96" y2="383.92" xlink:href="#linear-gradient-5"/>
    <linearGradient id="linear-gradient-8" x1="269.66" y1="289.27" x2="277.8" y2="393.05" gradientUnits="userSpaceOnUse">
      <stop offset="0" stop-color="#ffd6ae"/>
      <stop offset="1" stop-color="#ffb38b"/>
    </linearGradient>
    <linearGradient id="linear-gradient-9" x1="82.41" y1="349.7" x2="82.32" y2="357.46" gradientUnits="userSpaceOnUse">
      <stop offset="0" stop-color="#ffd6ae"/>
      <stop offset="1" stop-color="#ffd2a1"/>
    </linearGradient>
    <linearGradient id="linear-gradient-10" x1="417.02" y1="276.91" x2="416.81" y2="294.96" xlink:href="#linear-gradient-9"/>
    <linearGradient id="linear-gradient-11" x1="87.71" y1="298.71" x2="73.13" y2="204.44" gradientTransform="translate(18.29 .34) rotate(5.07)" gradientUnits="userSpaceOnUse">
      <stop offset="0" stop-color="#ffa475"/>
      <stop offset="1" stop-color="#ffd686"/>
    </linearGradient>
    <linearGradient id="linear-gradient-12" x1="62.79" y1="245.47" x2="69.23" y2="112.2" xlink:href="#linear-gradient-11"/>
    <linearGradient id="linear-gradient-13" x1="82.24" y1="246.41" x2="88.69" y2="113.14" xlink:href="#linear-gradient-11"/>
    <linearGradient id="linear-gradient-14" x1="199.79" y1="349.45" x2="187.59" y2="470.18" xlink:href="#linear-gradient"/>
    <linearGradient id="linear-gradient-15" x1="-161.33" y1="340.04" x2="-173.53" y2="460.77" gradientTransform="translate(105.64) rotate(-180) scale(1 -1)" xlink:href="#linear-gradient"/>
    <linearGradient id="linear-gradient-16" x1="222.17" y1="299.58" x2="286.6" y2="295.51" gradientUnits="userSpaceOnUse">
      <stop offset="0" stop-color="#ffa495"/>
      <stop offset="1" stop-color="#ffbfbd"/>
    </linearGradient>
    <linearGradient id="linear-gradient-17" x1="221.6" y1="290.65" x2="286.04" y2="286.58" xlink:href="#linear-gradient-16"/>
    <linearGradient id="linear-gradient-18" x1="156.67" y1="168.75" x2="241.79" y2="99.23" xlink:href="#linear-gradient-16"/>
    <linearGradient id="linear-gradient-19" x1="152.47" y1="160.73" x2="147.38" y2="279.77" gradientUnits="userSpaceOnUse">
      <stop offset="0" stop-color="#8b9cff"/>
      <stop offset="1" stop-color="#5454ff"/>
    </linearGradient>
    <linearGradient id="linear-gradient-20" x1="165.72" y1="145.21" x2="73.83" y2="229.3" xlink:href="#linear-gradient-16"/>
    <linearGradient id="linear-gradient-21" x1="230.67" y1="290.93" x2="160.81" y2="149.17" xlink:href="#linear-gradient-16"/>
    <linearGradient id="linear-gradient-22" x1="282.88" y1="115.82" x2="150.62" y2="352.53" gradientUnits="userSpaceOnUse">
      <stop offset="0" stop-color="#ffa495"/>
      <stop offset="1" stop-color="#ff5c96"/>
    </linearGradient>
    <linearGradient id="linear-gradient-23" x1="158.06" y1="204.98" x2="117.37" y2="424.73" xlink:href="#linear-gradient-22"/>
    <linearGradient id="linear-gradient-24" x1="128.7" y1="315.89" x2="110.39" y2="412.88" xlink:href="#linear-gradient"/>
    <linearGradient id="linear-gradient-25" x1="-79.03" y1="315.89" x2="-97.34" y2="412.88" gradientTransform="translate(105.64) rotate(-180) scale(1 -1)" xlink:href="#linear-gradient"/>
    <linearGradient id="linear-gradient-26" x1="353.15" y1="246.56" x2="452.1" y2="327.95" gradientUnits="userSpaceOnUse">
      <stop offset="0" stop-color="#72ffad"/>
      <stop offset="1" stop-color="#22668d"/>
    </linearGradient>
    <linearGradient id="linear-gradient-27" x1="447.29" y1="233.23" x2="438.13" y2="331.41" xlink:href="#linear-gradient-26"/>
    <linearGradient id="linear-gradient-28" x1="315.48" y1="179.29" x2="341.42" y2="78.56" xlink:href="#linear-gradient"/>
    <linearGradient id="linear-gradient-29" x1="220.58" y1="513.24" x2="129.01" y2="-117.54" xlink:href="#linear-gradient"/>
    <linearGradient id="linear-gradient-30" x1="510.52" y1="364.96" x2="389.45" y2="-30.8" xlink:href="#linear-gradient"/>
    <linearGradient id="linear-gradient-31" x1="155.49" y1="612.91" x2="34.43" y2="217.15" xlink:href="#linear-gradient"/>
    <linearGradient id="linear-gradient-32" x1="489.44" y1="560.01" x2="368.37" y2="164.24" xlink:href="#linear-gradient"/>
  </defs>
  <!-- Generator: Adobe Illustrator 28.6.0, SVG Export Plug-In . SVG Version: 1.2.0 Build 709)  -->
  <g class="cls-18">
    <g id="OBJECTS">
      <g>
        <g>
          <path class="cls-35" d="M82.26,360.92c-.11-.43-.23-.86-.31-1.28-.11-.63-.2-1.28-.26-1.91-.06-.94-.09-1.88-.03-2.83-.03-.29,0-.6.03-.91v-.14c.09-1.17.23-2.34.4-3.51.11-.77.23-1.54.34-2.34,1.2,4.42.49,8.65-.17,12.93Z"/>
          <path class="cls-4" d="M468.53,262.73c0,.69,0,1.4-.03,2.14-.11,3.03-.8,5.91-1.94,8.62-.2.49-.43.97-.69,1.43-16.64,2.51-38.93,19.64-76.72,25.72-7.65,1.23-14.93,1.74-21.92,1.8-10.9,1.83-22.15,2.88-33.68,2.83-31.71-.17-52.75,7.28-72.81,14.44-24.58,8.76-47.7,17.07-87.26,10.33-44.21-7.51-72.78-3.97-98.33-4.8-2.54-2.28-5.82-4.62-10.1-7.05-1.66-.94-3.25-1.88-4.82-2.85-.8-.51-1.6-1-2.37-1.51-1.97-1.26-3.88-2.57-5.71-3.91-.63-.43-1.26-.91-1.86-1.37-1.83-1.37-3.54-2.74-5.14-4.17-.63-.54-1.23-1.08-1.8-1.63-.71-.63-1.4-1.28-2.06-1.94-.74-.74-1.46-1.51-2.17-2.28-.43-.46-.83-.91-1.2-1.37-1.6-1.83-3.03-3.71-4.25-5.62-.29-.43-.57-.88-.83-1.31-.31-.49-.57-.94-.83-1.43-.34-.6-.66-1.2-.94-1.8-.46-.91-.86-1.83-1.23-2.77-4.85-12.47-2.05-26.26,12.05-41.02,21.84-22.86,101.78-29.71,147.45-42.67,13.93-3.97,24.66-8.48,29.57-14.21,21.01-24.49-46.3,10.53-41.47-33.77.17-1.46.34-2.91.54-4.31,6.17-40.96,34.17-55,96.5-57.63,64.48-2.71,162.81-62.4,179.76-9.5,13.87,43.3-48.04,74.27-68.45,103.98-4.54,6.62-7.02,13.16-6.17,19.78.26,2,.77,3.8,1.51,5.42,11.05,24.98,72.59,11.3,85.14,40.85,1.4,3.28,2.17,7.11,2.23,11.59Z"/>
          <path class="cls-14" d="M466.3,251.14c-37.45,1.26-93.36,19.95-110.6,22.35-22.61,3.14-79.15,7.05-78.47-1.03.69-8.05,21.38-9.73,21.38-9.73,0,0,4.4-13.39,21.01-7.96-2.71-6.11,1.37-17.3,15.27-11.53-5.08-14.59,11.87-29.51,26.46-19.21.8-5.91,7.82-13.67,19.81-13.73,11.05,24.98,72.59,11.3,85.14,40.85Z"/>
          <path class="cls-12" d="M278.95,192.74c-2.43,7.51-58.17,8.08-89.6,7.79,13.93-3.97,24.66-8.48,29.57-14.21,21.01-24.49-46.3,10.53-41.47-33.77.17-1.46.34-2.91.54-4.31,15.7-4.31,27.66,5.02,29.46,13.24,9.08-11.87,27.06-9.73,28.09,5.99,8.14-7.34,21.32,2.14,20.84,11.99,11.39-8.82,25.95,2.8,22.58,13.27Z"/>
          <path class="cls-15" d="M82.26,360.92c-.11-.43-.23-.86-.31-1.28-.11-.63-.2-1.28-.26-1.91-.09-.94-.09-1.88-.03-2.83-.03-.29,0-.6.03-.91v-.14c.09-1.17.23-2.34.4-3.51.11-.77.23-1.54.34-2.34,1.2,4.42.49,8.65-.17,12.93Z"/>
          <path class="cls-30" d="M468.53,262.73c0,.69,0,1.4-.03,2.14-.11,3.03-.8,5.91-1.94,8.62-.2.49-.43.97-.69,1.43-16.64,2.51-38.93,19.64-76.72,25.72-7.65,1.23-14.93,1.74-21.92,1.8-10.9,1.83-22.15,2.88-33.68,2.83-70.56-.37-88.2,36.99-160.07,24.78-44.21-7.51-72.78-3.97-98.33-4.8-2.54-2.28-5.82-4.62-10.1-7.05-1.66-.94-3.25-1.88-4.82-2.85-.8-.51-1.6-1-2.37-1.51-1.97-1.26-3.88-2.57-5.71-3.91-.63-.43-1.26-.91-1.86-1.37-1.83-1.37-3.54-2.74-5.14-4.17-.63-.54-1.23-1.08-1.8-1.63-.71-.63-1.4-1.28-2.06-1.94-.74-.74-1.46-1.51-2.17-2.28-.43-.46-.83-.91-1.2-1.37-1.6-1.83-3.03-3.71-4.25-5.62-.29-.43-.57-.88-.83-1.31-.31-.49-.57-.94-.83-1.43-.34-.6-.66-1.2-.94-1.8-.46-.91-.86-1.83-1.23-2.77,32.37,11.45,82.03-8.13,108.81,8.42,27.49,17.01,101.81,4.62,136.32-3.43l.2-.06c4.85-1.11,8.88-2.17,11.9-3.03,2.17-.63,4.45-1.06,6.77-1.34.03-.03.06-.03.09,0,23.61-2.8,54.52,10.48,95.22,3.94,10.59-1.71,19.95-4.28,28.32-7.14,23.12-7.93,38.65-18.21,51.06-18.87Z"/>
          <path class="cls-26" d="M367.23,302.43c-10.9,1.83-22.15,2.88-33.68,2.83-70.56-.37-88.2,36.99-160.07,24.78-44.21-7.51-72.78-3.97-98.33-4.8-2.54-2.28-5.82-4.62-10.1-7.05-1.66-.94-3.25-1.88-4.82-2.85-.8-.51-1.6-1-2.37-1.51-1.97-1.26-3.88-2.57-5.71-3.91-.63-.43-1.26-.91-1.86-1.37-1.83-1.37-3.54-2.74-5.14-4.17-.63-.54-1.23-1.08-1.8-1.63-.71-.63-1.4-1.28-2.06-1.94-.74-.74-1.46-1.51-2.17-2.28,31.97,5.77,75.21-9.02,99.53,6.02,31.43,19.44,123.99.49,148.42-6.51,20.24-5.77,46.33,4.77,80.15,4.4Z"/>
          <path class="cls-19" d="M465.87,274.92c-.31.63-.66,1.26-1.03,1.88-.37.63-.77,1.23-1.2,1.86-.43.6-.86,1.2-1.34,1.77-.43.54-.88,1.08-1.34,1.6-.06.06-.11.14-.2.2-.51.54-1.03,1.08-1.57,1.63-.43.43-.86.83-1.31,1.23-.74.69-1.54,1.37-2.37,2-.49.4-.97.8-1.48,1.17-.26.2-.51.4-.8.6-.48.34-1,.69-1.48,1.03-1.66,1.14-3.45,2.25-5.31,3.31-.71.43-1.43.83-2.17,1.2-3.03,1.66-6.25,3.2-9.68,4.65-.77.34-1.6.69-2.4,1-1.2.49-2.4.97-3.62,1.46-.8.29-1.6.6-2.4.88-1.03.37-2.06.77-3.11,1.11-1.57.54-3.17,1.08-4.77,1.63h-.03c-11.25,3.68-23.41,6.79-35.42,9.56-2.88.66-5.74,1.28-8.56,1.91s-5.62,1.26-8.42,1.83c-1.08.26-2.2.49-3.28.71-1.11.23-2.2.46-3.28.69-4.8,1.03-9.42,2-13.84,2.97-1.54.34-3.05.66-4.54,1-.2.06-.43.09-.63.14-.94.2-1.83.4-2.74.63-.91.2-1.8.4-2.68.63-1.6.37-3.14.74-4.65,1.14-.83.2-1.63.4-2.43.63-2.48.66-4.8,1.31-6.88,2-.66.2-1.28.4-1.91.63-4.94,1.71-8.51,3.45-10.25,5.39-.23.23-.4.46-.57.71v.03c-.17.23-.31.49-.4.74-.17.49-.34.91-.46,1.34v.03c-.11.4-.2.8-.23,1.17-.06.57-.06,1.08.03,1.54.03.2.06.34.14.51,0,.06.03.11.06.17.03.14.11.29.17.4.09.14.17.29.26.4.49.66,1.2,1.14,2.08,1.48.26.11.51.2.77.29.29.09.57.17.88.23.31.09.6.14.94.2.51.09,1.03.14,1.6.2.51.06,1.03.09,1.6.11h.17c.54.03,1.14.06,1.74.06,11.62.26,29.37-2.08,34.31,9.88,1.4,3.4,1.97,6.48,1.71,9.28-.03.26-.06.51-.11.77-.03.29-.06.57-.11.83-.09.4-.2.8-.31,1.17-.14.49-.31.97-.54,1.46-2.14,4.97-7.34,9.08-15.41,12.82-.63.29-1.28.57-1.97.86-.71.31-1.46.63-2.23.94-1.23.49-2.51.97-3.85,1.46-2.68.94-5.57,1.88-8.68,2.83-1.54.46-3.14.94-4.79,1.4-5.77,1.63-12.19,3.23-19.18,4.85-10.73,2.51-24.18,5.85-38.36,9.22-2.11.51-4.25,1-6.39,1.51-3.45.83-6.94,1.63-10.42,2.43-2.26.51-4.54,1-6.79,1.51-4.51.97-8.99,1.91-13.42,2.83-.23.06-.46.09-.68.14-1.97.4-3.94.77-5.85,1.14-.94.2-1.86.4-2.8.54-2.14.4-4.28.77-6.37,1.14-2.6.46-5.14.86-7.59,1.23-2.48.37-4.85.71-7.16.97-.91.11-1.83.23-2.71.31-.43.06-.86.11-1.31.14-4.17.43-7.96.66-11.3.66-3.08,0-5.79-.2-8.05-.63-.03,0-.06,0-.09-.03-.46-.09-.88-.2-1.28-.29-.83-.23-1.57-.49-2.23-.77-.2-.06-.4-.17-.6-.29s-.37-.2-.54-.31c-1.06-.66-1.77-1.48-2.11-2.48-.4-1.14-.48-2.23-.31-3.25,0-.14.03-.29.06-.43.06-.29.14-.57.26-.83.11-.37.26-.71.46-1.06.03-.03.03-.06.06-.11.17-.29.37-.57.57-.86.26-.37.57-.74.91-1.11.23-.26.49-.51.77-.74,1.11-1.06,2.48-2.03,4.02-3,.69-.4,1.37-.8,2.11-1.2.23-.11.46-.26.69-.37.54-.29,1.08-.57,1.66-.86.4-.2.8-.4,1.2-.6.83-.4,1.66-.8,2.48-1.17.4-.2.83-.4,1.26-.6,5.05-2.34,10.16-4.62,13.62-7.19.11-.09.23-.17.31-.26.29-.2.54-.43.8-.66.26-.2.46-.4.66-.6.23-.2.46-.43.66-.66.31-.37.6-.74.83-1.11.14-.17.26-.37.31-.54.23-.37.4-.77.49-1.14.09-.2.14-.43.17-.66.2-1.11.06-2.28-.51-3.54-6.28-13.87-78.98,22.38-107.32-10.85-1.2-1.4-2.11-2.8-2.83-4.17-.26-.51-.51-1.06-.71-1.57-.29-.69-.51-1.37-.69-2.06.2-1.2.37-2.43.54-3.62.37-3.05.49-6.14-.37-9.31.46-3.14.88-6.31.46-9.53,0-.09,0-.17-.03-.26-.06-.51-.14-1.03-.29-1.57-.03-.14-.09-.31-.14-.49-.03-.23-.11-.49-.2-.71-.4-1.31-.97-2.63-1.77-3.97-1.23-2.03-2.91-4.11-5.31-6.22,25.55.83,54.12-2.71,98.33,4.8,71.87,12.22,89.51-25.15,160.07-24.78,11.53.06,22.78-1,33.68-2.83,6.99-.06,14.27-.57,21.92-1.8,10.22-1.66,19.3-4.11,27.43-6.88,4.91-1.63,9.45-3.37,13.7-5.14.48-.2.94-.37,1.43-.57,5.88-2.48,11.19-4.91,16.04-7.02,6.85-3,12.76-5.31,18.12-6.11Z"/>
          <path class="cls-10" d="M281.71,377.84c-22.06,6.99-46.67,22.38-61.42,32.91-1.97.4-3.94.77-5.85,1.14-.94.2-1.86.4-2.8.54-2.14.4-4.28.77-6.37,1.14-2.6.46-5.14.86-7.59,1.23-2.48.37-4.85.71-7.16.97-.91.11-1.83.23-2.71.31-.43.06-.86.11-1.31.14-4.17.43-7.96.66-11.3.66-3.08,0-5.79-.2-8.05-.63-.03,0-.06,0-.09-.03-.46-.09-.88-.2-1.28-.29-.83-.23-1.57-.49-2.23-.77-.2-.06-.4-.17-.6-.29s-.37-.2-.54-.31c-1.06-.66-1.77-1.48-2.11-2.48-.4-1.14-.48-2.23-.31-3.25,0-.14.03-.29.06-.43.06-.29.14-.57.26-.83.11-.37.26-.71.46-1.06.03-.03.03-.06.06-.11.17-.29.37-.57.57-.86.26-.37.57-.74.91-1.11.23-.26.49-.51.77-.74,1.11-1.06,2.48-2.03,4.02-3,.69-.4,1.37-.8,2.11-1.2.23-.11.46-.26.69-.37.54-.29,1.08-.57,1.66-.86.4-.2.8-.4,1.2-.6.83-.4,1.66-.8,2.48-1.17.4-.2.83-.4,1.26-.6,5.05-2.34,10.16-4.62,13.62-7.19.11-.09.23-.17.31-.26.29-.2.54-.43.8-.66.26-.2.46-.4.66-.6.23-.2.46-.43.66-.66.31-.37.6-.74.83-1.11.14-.17.26-.37.31-.54.23-.37.4-.77.49-1.14.09-.2.14-.43.17-.66.2-1.11.06-2.28-.51-3.54-6.28-13.87-78.98,22.38-107.32-10.85-1.2-1.4-2.11-2.8-2.83-4.17-.26-.51-.51-1.06-.71-1.57-.29-.69-.51-1.37-.69-2.06.2-1.2.37-2.43.54-3.62,28.94,2.97,65.28-7.62,74.81-2.85,11.19,5.62-.48,8.93,19.84,8.42,20.35-.51,86.2-17.78,104.27-9.68,18.07,8.13,29.74,15.27,0,24.66Z"/>
          <path class="cls-27" d="M82.26,360.92c-.11-.43-.23-.86-.31-1.28-.11-.63-.2-1.28-.26-1.91-.06-.94-.09-1.88-.03-2.83-.03-.29,0-.6.03-.91v-.14c.09-1.17.23-2.34.4-3.51.11-.77.23-1.54.34-2.34,1.2,4.42.49,8.65-.17,12.93Z"/>
          <path class="cls-6" d="M466.56,273.49c-.2.49-.43.97-.69,1.43-16.64,2.51-38.93,19.64-76.72,25.72-7.65,1.23-14.93,1.74-21.92,1.8,40.13-6.56,75.18-22.95,99.33-28.94Z"/>
          <g>
            <line class="cls-20" x1="72.33" y1="249.17" x2="127.45" y2="328.28"/>
            <path class="cls-28" d="M126.69,214.07c-5.12,6.37-12.07,13.29-19.88,20.3-4.2,3.73-8.63,7.52-13.2,11.24-9.36,7.65-19.28,15.11-28.55,21.74-6.52,4.67-12.74,8.93-18.25,12.57-12.91,8.57-21.9,13.67-21.8,12.57.28-3.18,23.39-53.69,31.59-68.29,0,0,42.08-8.24,70.1-10.11Z"/>
            <path class="cls-7" d="M65.06,267.35c-6.52,4.67-12.74,8.93-18.25,12.57l9.79-55.73,8.46,43.16Z"/>
            <path class="cls-2" d="M106.81,234.37c-4.2,3.73-8.63,7.52-13.2,11.24l-37.01-21.42,50.22,10.19Z"/>
          </g>
          <g>
            <g>
              <path class="cls-22" d="M192.16,368.7h0c-3.71,0-6.17-3.83-4.63-7.2l14.36-31.46h11.19l-16.28,35.68c-.83,1.81-2.64,2.98-4.63,2.98Z"/>
              <path class="cls-1" d="M275.54,368.7h0c3.71,0,6.17-3.83,4.63-7.2l-14.36-31.46h-11.19l16.28,35.68c.83,1.81,2.64,2.98,4.63,2.98Z"/>
            </g>
            <path class="cls-33" d="M278.17,297.87c4.32-2.03,5.34-11.49,7.46-11.7,2.12-.21,1.4,1.36,1.57,1.61s1.78.72,1.74,2.71c-.04,1.99-1.14,6.32-2.42,8.52-1.27,2.2-1.95,6.99-6.49,6.15-4.54-.84-3.69-2.71-5.55-3.43"/>
            <path class="cls-25" d="M232.18,278.12c3.85-1.62,15.99-7.25,19.26-5.65,3.27,1.59,28.12,23.9,28.89,24.92.77,1.01-.39,5.19-2.89,6.35-2.5,1.16-21.19-6.95-26-10-3.85,1.83-13.87,6.29-13.87,6.29"/>
            <path class="cls-34" d="M200.07,275.61c15.99,4.66,31.2-7.49,37.26-1.37s12.16,19.66,8.52,25.22c-3.64,5.56-27.43,8.67-27.43,8.67"/>
            <path class="cls-38" d="M178.73,166.88c-1.91.88-.14,12.07-3.68,13.99-3.57,1.91-11.22,0-11.22,0,0,0-.23,1.2-.49,2.88-.51,3.2-1.17,8.08-.77,9.59.63,2.28-22.63-1.03-22.63-1.03,0,0,1.74-11.16,2.45-20.84.09-1.17.14-2.28.2-3.37.51-10.25,7.14-23.35,7.14-23.35l17.41-3.94,11.07,1.26c1.66,5.99-.14,16.41,1.51,19.72,1.66,3.31.91,4.2-1,5.08Z"/>
            <path class="cls-10" d="M162.58,193.34c.63,2.28-22.63-1.03-22.63-1.03,0,0,1.74-11.16,2.45-20.84l19.21,2.23c-6.11,7.28-8.65,8.99-6.45,11.02,1.63,1.51,4.8-1.06,8.19-.97-.51,3.2-1.17,8.08-.77,9.59Z"/>
            <path class="cls-34" d="M147.95,180.87c-7.25-.51-7.61-1.04-11.32-6.87-3.71-5.83-11.19-16.53-8.77-24.8,2.42-8.27,7.12-7.12,7.12-7.12,0,0-4.07-1.27-1.27-7.5s10.43-12.21,20.86-9.79c10.43,2.42,28.74,2.21,30.65-.55,1.02,2.08,0,6.4,0,6.4l4.58-6.4s2.42,12.63-8.01,17.72c-10.43,5.09-15.39,5.72-15.39,5.72,0,0,2.54,1.49,1.14,4.88-1.4,3.39-2.42,11.19-2.8,13.1-.38,1.91-1.14-5.38-2.29-8.6-1.14-3.22-6.42.23-5.85,4.79.57,4.56,3.31,3.56,3.31,3.56,0,0,7.88,15.47-11.95,15.47Z"/>
            <path class="cls-29" d="M77.24,211.52c18.57-23.15,22.8-26.45,34.67-27.47,11.87-1.02,33.49,5.73,46.72,4.77,13.23-.96,31.03-3.5,42.73,1.59,11.7,5.09,22.13,18.08,22.13,18.08,0,0-22.96,13.06-28.27,15.93-5.31,2.87-41.68,1.83-49.82,2.73s-29,.88-30.52,0"/>
            <path class="cls-24" d="M163.2,160.14c-3.17,2.48-5.54,5.59-5.54,5.59,0,0,1.63-.31,2.43,1.17.8,1.48-2.51,5.68-5.31,7.65-2.8,1.97-9.99,1.46-13.73,3.37-1.43.74-5.68,4.11-10.7,8.39-8.13,6.91-18.32,16.18-22.01,20.49-5.94,6.99-22.43,25.63-30.4,15.81-15.44-18.95,47.27-49.98,51.29-52.01,4.02-2.03,12.67-10.13,17.44-14.27,4.77-4.14,13.13-3.34,16.44-1.54.37.2.69.37.97.57,2.31,1.46,1.97,2.54-.88,4.77Z"/>
            <path class="cls-10" d="M163.2,160.14c-3.17,2.48-5.54,5.59-5.54,5.59,0,0,1.63-.31,2.43,1.17.8,1.48-2.51,5.68-5.31,7.65-2.8,1.97-9.99,1.46-13.73,3.37-1.43.74-5.68,4.11-10.7,8.39-2.37-1.94-.66-4.85,5.05-8.05,6.19-3.45,7.62-8.65,15.67-9.65,7.36-.94,6.02-10.1,13.02-13.24,2.31,1.46,1.97,2.54-.88,4.77Z"/>
            <path class="cls-31" d="M222.66,221.03c-7.62,10.08-24.78-7.93-31-14.7-6.19-6.76-29.91-25.83-33.74-27.63-3.82-1.77-10.99-1-13.84-2.85-2.17-1.4-4.62-4-5.42-5.88-.29-.63-.37-1.17-.17-1.57.71-1.51,2.37-1.26,2.37-1.26,0,0-2.48-3.03-5.74-5.39-3.28-2.37-3.37-3.4-.11-5.34,3.25-1.91,11.56-3,16.47.94,4.94,3.94,13.87,11.73,17.98,13.62,3.25,1.48,43.67,19.64,53.35,36.85,2.57,4.57,2.97,9.11-.14,13.22Z"/>
            <path class="cls-10" d="M222.66,221.03c-7.62,10.08-24.78-7.93-31-14.7-6.19-6.76-29.91-25.83-33.74-27.63-3.82-1.77-10.99-1-13.84-2.85-2.17-1.4-4.62-4-5.42-5.88.4-.63,1.34-.06,3.68,2.14,3.71,3.43,7.02,2.8,12.47,3.54,5.48.77,8.39.26,15.13,7.76,6.74,7.51,35.22,29.26,44.38,29,4.37-.11,6.96-2.31,8.48-4.6,2.57,4.57,2.97,9.11-.14,13.22Z"/>
            <path class="cls-16" d="M296.36,314.62c0,2.83-1.17,5.39-3.03,7.28-1.86,1.86-4.42,3-7.28,3H125.61c-4,0-7.39-2.97-7.94-6.94l-13.81-104.04c-.66-4.8,3.08-9.05,7.93-9.05h91.11c4.02,0,7.39,2.97,7.94,6.94l12.3,92.51h62.91c5.68,0,10.3,4.62,10.3,10.3Z"/>
            <path class="cls-36" d="M199.45,324.89l-91.12.02c-4.01,0-7.4-2.97-7.93-6.95l-13.83-104.03c-.64-4.79,3.09-9.05,7.93-9.06l91.12-.02c4.01,0,7.4,2.97,7.93,6.95l13.83,104.03c.64,4.79-3.09,9.05-7.93,9.06Z"/>
            <path class="cls-34" d="M289.84,330.04H103.98c-1.42,0-2.57-1.15-2.57-2.57h0c0-1.42,1.15-2.57,2.57-2.57h185.87c1.42,0,2.57,1.15,2.57,2.57h0c0,1.42-1.15,2.57-2.57,2.57Z"/>
            <g>
              <path class="cls-17" d="M114.99,368.7h0c-3.71,0-6.17-3.83-4.63-7.2l14.35-31.46h11.19l-16.28,35.68c-.83,1.81-2.64,2.98-4.63,2.98Z"/>
              <path class="cls-5" d="M198.37,368.7h0c3.71,0,6.17-3.83,4.63-7.2l-14.35-31.46h-11.19l16.28,35.68c.83,1.81,2.64,2.98,4.63,2.98Z"/>
            </g>
          </g>
          <path class="cls-9" d="M389.15,288.73c10.59-1.71,19.95-4.28,28.32-7.14-13.47,5.85-29.94,11.93-43.93,12.96-27.32,2.03-36.11-1.26-52.78-5.85-10.3-2.83-17.9-4.65-26.83-3.91,23.61-2.8,54.52,10.48,95.22,3.94Z"/>
          <path class="cls-11" d="M418.29,305.11c-1.56-10.03-33.3-8.39-35.59-21.62-2.29-13.23,32.3-11.7,38.91,8.14"/>
          <path class="cls-8" d="M468.53,253.22c-7.48,8.48-16.07,17.18-20.78,27.8-1.86,4.14-3.11,8.53-3.48,13.36-3.03,1.66-6.25,3.2-9.68,4.65-.77.34-1.6.69-2.4,1-1.2.49-2.4.97-3.62,1.46-.8.29-1.6.6-2.4.88-1.03.37-2.06.77-3.11,1.11-1.57.54-3.17,1.08-4.77,1.63h-.03c-.71-3.57-1.26-7.39-1.68-11.36-3.31-32.34,3.4-74.1,19.38-73.07,18.81,1.17,3.37,23.55,0,35.59-2.2,7.76-4.4,22.72-5.68,32.34-.69,5.31-1.11,8.99-1.11,8.99,0,0,.91-3.77,2.54-9.56,5.22-18.78,17.75-58.91,29.68-61.11,15.58-2.88,17.53,14.53,7.14,26.29Z"/>
          <path class="cls-21" d="M433.83,230.59s-15.26,38.41-10.43,69.69"/>
          <path class="cls-21" d="M435.61,297.61s8.9-44.38,27.72-58.88"/>
          <path class="cls-3" d="M289.45,150.98c-5.09-3.56.17-12.35,7.8-10.16-3.39-11.54,13.06-13.92,17.3-6.97,3.05-12.38,20.52-12.89,24.08-2.71,4.41-3.56,12.21,2.4,11.7,9.68,5.93-4.59,12.38.3,9.83,6.33-2.54,6.03-70.71,3.83-70.71,3.83Z"/>
        </g>
        <path class="cls-23" d="M168.25,87.02c0,5.27-4.27,9.54-9.54,9.54s-9.54-4.27-9.54-9.54,4.27-9.54,9.54-9.54,9.54,4.27,9.54,9.54Z"/>
        <path class="cls-13" d="M464.46,183.2c0,5.27-4.27,9.54-9.54,9.54s-9.54-4.27-9.54-9.54,4.27-9.54,9.54-9.54,9.54,4.27,9.54,9.54Z"/>
        <path class="cls-37" d="M109.43,431.14c0,5.27-4.27,9.54-9.54,9.54s-9.54-4.27-9.54-9.54,4.27-9.54,9.54-9.54,9.54,4.27,9.54,9.54Z"/>
        <path class="cls-32" d="M443.37,378.24c0,5.27-4.27,9.54-9.54,9.54s-9.54-4.27-9.54-9.54,4.27-9.54,9.54-9.54,9.54,4.27,9.54,9.54Z"/>
      </g>
    </g>
  </g>
</svg>