<?xml version="1.0" encoding="UTF-8"?>
<svg xmlns="http://www.w3.org/2000/svg" version="1.1" xmlns:xlink="http://www.w3.org/1999/xlink" viewBox="0 0 500 500">
  <defs>
    <style>
      .cls-1 {
        fill: url(#linear-gradient-15);
      }

      .cls-2 {
        fill: url(#linear-gradient-13);
      }

      .cls-3 {
        fill: url(#linear-gradient-2);
      }

      .cls-4 {
        fill: url(#linear-gradient-10);
      }

      .cls-5 {
        fill: url(#linear-gradient-12);
      }

      .cls-6 {
        fill: url(#linear-gradient-4);
      }

      .cls-7 {
        mix-blend-mode: overlay;
        opacity: .15;
      }

      .cls-8 {
        fill: url(#linear-gradient-3);
      }

      .cls-9 {
        fill: url(#linear-gradient-5);
      }

      .cls-10 {
        isolation: isolate;
      }

      .cls-11 {
        fill: url(#linear-gradient-8);
      }

      .cls-12 {
        fill: url(#linear-gradient-14);
      }

      .cls-13 {
        fill: none;
        stroke: #444375;
        stroke-dasharray: 4;
        stroke-linecap: round;
        stroke-linejoin: round;
      }

      .cls-14 {
        fill: url(#linear-gradient-17);
      }

      .cls-15 {
        fill: url(#linear-gradient-7);
      }

      .cls-16 {
        fill: url(#linear-gradient-9);
      }

      .cls-17 {
        fill: url(#linear-gradient-11);
      }

      .cls-18 {
        fill: url(#linear-gradient-19);
      }

      .cls-19 {
        fill: url(#linear-gradient-6);
      }

      .cls-20 {
        fill: url(#linear-gradient-16);
      }

      .cls-21 {
        fill: url(#linear-gradient);
      }

      .cls-22 {
        fill: #444375;
      }

      .cls-23 {
        fill: url(#linear-gradient-18);
      }
    </style>
    <linearGradient id="linear-gradient" x1="276.68" y1="633.26" x2="220.57" y2="-75.3" gradientUnits="userSpaceOnUse">
      <stop offset="0" stop-color="#bfd6ff"/>
      <stop offset="1" stop-color="#fff"/>
    </linearGradient>
    <linearGradient id="linear-gradient-2" x1="134.28" y1="644.53" x2="78.17" y2="-64.02" xlink:href="#linear-gradient"/>
    <linearGradient id="linear-gradient-3" x1="433.49" y1="620.84" x2="377.38" y2="-87.72" xlink:href="#linear-gradient"/>
    <linearGradient id="linear-gradient-4" x1="413.07" y1="622.46" x2="356.95" y2="-86.1" xlink:href="#linear-gradient"/>
    <linearGradient id="linear-gradient-5" x1="144.93" y1="643.69" x2="88.82" y2="-64.86" xlink:href="#linear-gradient"/>
    <linearGradient id="linear-gradient-6" x1="215.34" y1="168.73" x2="291.62" y2="417.39" gradientUnits="userSpaceOnUse">
      <stop offset="0" stop-color="#54d6ff"/>
      <stop offset="1" stop-color="#4863c9"/>
    </linearGradient>
    <linearGradient id="linear-gradient-7" x1="218.63" y1="154.38" x2="450.78" y2="445.94" gradientUnits="userSpaceOnUse">
      <stop offset="0" stop-color="#72ffad"/>
      <stop offset="1" stop-color="#22668d"/>
    </linearGradient>
    <linearGradient id="linear-gradient-8" x1="103.15" y1="246.32" x2="335.3" y2="537.89" xlink:href="#linear-gradient-7"/>
    <linearGradient id="linear-gradient-9" x1="217.24" y1="155.48" x2="449.39" y2="447.05" xlink:href="#linear-gradient-7"/>
    <linearGradient id="linear-gradient-10" x1="204.85" y1="165.35" x2="437" y2="456.92" gradientUnits="userSpaceOnUse">
      <stop offset="0" stop-color="#72ffad"/>
      <stop offset="1" stop-color="#457775"/>
    </linearGradient>
    <linearGradient id="linear-gradient-11" x1="154.89" y1="205.13" x2="387.04" y2="496.7" xlink:href="#linear-gradient-10"/>
    <linearGradient id="linear-gradient-12" x1="97.01" y1="251.22" x2="329.16" y2="542.78" xlink:href="#linear-gradient-7"/>
    <linearGradient id="linear-gradient-13" x1="144.87" y1="213.11" x2="377.02" y2="504.67" xlink:href="#linear-gradient-7"/>
    <linearGradient id="linear-gradient-14" x1="71.86" y1="111.99" x2="383.23" y2="493.77" xlink:href="#linear-gradient-7"/>
    <linearGradient id="linear-gradient-15" x1="162.25" y1="38.27" x2="473.62" y2="420.06" xlink:href="#linear-gradient-7"/>
    <linearGradient id="linear-gradient-16" x1="160.65" y1="39.58" x2="472.01" y2="421.36" xlink:href="#linear-gradient-7"/>
    <linearGradient id="linear-gradient-17" x1="7.06" y1="164.84" x2="318.43" y2="546.62" xlink:href="#linear-gradient-7"/>
    <linearGradient id="linear-gradient-18" x1="101.13" y1="384.33" x2="109.2" y2="534.79" gradientTransform="translate(-88.69 -265.84) rotate(-17.46)" gradientUnits="userSpaceOnUse">
      <stop offset="0" stop-color="#ffa495"/>
      <stop offset="1" stop-color="#ff5c96"/>
    </linearGradient>
    <linearGradient id="linear-gradient-19" x1="28" y1="-737.88" x2="36.07" y2="-587.42" gradientTransform="translate(-102.93 621.65) rotate(45.4)" xlink:href="#linear-gradient-18"/>
  </defs>
  <!-- Generator: Adobe Illustrator 28.6.0, SVG Export Plug-In . SVG Version: 1.2.0 Build 709)  -->
  <g class="cls-10">
    <g id="OBJECTS">
      <g>
        <g>
          <path class="cls-21" d="M119.94,282.61c-46.61,9.9-43.31,18.15-40.56,35.76,2.75,17.6-65.46,21.81-52.81,56.56,12.65,34.76,55.2,15.5,110.67,5.6,55.47-9.9,99.64,14.09,97.36,27.84-2.28,13.75-66.76,3.51-61.75,29.92,5.01,26.41,51,15.95,111.35,6.6,60.35-9.35,86.2-31.91,80.15-42.36-6.05-10.45-27.42,6.12-29.94-11.79-2.52-17.91,123.46-17.91,130.61-54.77,7.15-36.86-28.06-42.91-52.26-38.51-24.21,4.4-23.66-33.82,22.56-38.91,46.21-5.1,47.86-44.34,26.41-52.5-21.45-8.16-158.42,18.8-158.42,18.8l-183.36,57.76Z"/>
          <path class="cls-3" d="M115.23,190.92c0,9.32-7.55,16.87-16.87,16.87s-16.87-7.55-16.87-16.87,7.55-16.87,16.87-16.87,16.87,7.55,16.87,16.87Z"/>
          <path class="cls-8" d="M425.86,394.29c0,5.7-4.62,10.32-10.32,10.32s-10.32-4.62-10.32-10.32,4.62-10.32,10.32-10.32,10.32,4.62,10.32,10.32Z"/>
          <path class="cls-6" d="M381.83,97.77c0,5.7-4.62,10.32-10.32,10.32s-10.32-4.62-10.32-10.32,4.62-10.32,10.32-10.32,10.32,4.62,10.32,10.32Z"/>
          <path class="cls-9" d="M138.45,431.52c0,5.7-4.62,10.32-10.32,10.32s-10.32-4.62-10.32-10.32,4.62-10.32,10.32-10.32,10.32,4.62,10.32,10.32Z"/>
        </g>
        <g>
          <path class="cls-19" d="M396.54,286.45c0,1.88-.03,3.77-.12,5.65-.65,17.32-4.35,33.86-10.59,49.11-6.67,16.39-16.24,31.24-28.09,43.99l-.12.12c-26.45,28.43-64.24,46.21-106.16,46.21-2.87,0-5.71-.09-8.55-.25-1.48-.09-2.99-.22-4.48-.34-4.01-.34-8.03-.86-11.95-1.54l-.56-.09c-2.07-.37-4.14-.8-6.2-1.27-2.41-.52-4.82-1.14-7.19-1.79-2.56-.71-5.09-1.48-7.62-2.35-21.95-7.44-41.52-19.97-57.32-36.18-3.09-3.18-6.05-6.48-8.86-9.94-3.27-4.04-6.36-8.24-9.17-12.62-8.98-13.83-15.62-29.29-19.42-45.84-.37-1.57-.71-3.18-1.02-4.78-.49-2.44-.93-4.91-1.27-7.41-.71-4.88-1.17-9.85-1.36-14.88-.09-1.94-.12-3.86-.12-5.8,0-64.08,41.55-118.44,99.15-137.67,10.03-3.33,20.53-5.62,31.39-6.67,2.93-.31,5.93-.52,8.92-.62,1.73-.09,3.46-.12,5.22-.12h.4c12.01,0,23.68,1.45,34.85,4.23.09.03.19.03.25.06,6.61,1.64,13.06,3.7,19.26,6.24,2.41.96,4.75,2.01,7.1,3.09,1.82.86,3.64,1.79,5.43,2.72,19.94,10.34,37.17,25.22,50.31,43.25,3.43,4.66,6.57,9.54,9.42,14.6,2.59,4.63,4.94,9.45,7.01,14.38,7.38,17.38,11.45,36.49,11.45,56.52Z"/>
          <path class="cls-7" d="M310.42,177.54c1.39,14.01-26.11,13.46-29.26,20.34-3.12,6.88-4.29,14.85,6.17,7.44,10.43-7.44,20.06,10.71,7.69,26.67-12.38,15.96-13.46,17.35-15.4,28.89-1.91,11.54-17.59,22.01-28.15,23.92-10.56,1.91-19.69-3.3-13.37-13.92,6.33-10.62,3.86-17.16-3.3-12.35-7.16,4.82-11.27,6.2-19.48,6.73-8.21.56-11.33,8.27-15.19,18.15-3.86,9.91-14.85,13.49-18.98-1.64-4.11-15.13,16.79-12.66,21.61-17.32,4.82-4.69,1.79-6.05.12-15.68-1.64-9.63,13.21-24.2,20.37-34.66,7.13-10.46.53-14.29-2.5-31.64-2.75-15.71,11.48-29.36,25.1-40.99,1.73-.09,3.46-.12,5.22-.12h.4c12.01,0,23.68,1.45,34.85,4.23.09.03.19.03.25.06,6.61,1.64,13.06,3.7,19.26,6.24,2.41.96,4.75,2.01,7.1,3.09-1.6,6.05-3.27,14.69-2.5,22.56Z"/>
          <path class="cls-7" d="M238.43,430.94c-4.01-.34-8.03-.86-11.95-1.54l-.56-.09c-2.07-.37-4.14-.8-6.2-1.27-2.41-.52-4.82-1.14-7.19-1.79-2.56-.71-5.09-1.48-7.62-2.35-21.95-7.44-41.52-19.97-57.32-36.18-3.09-3.18-6.05-6.48-8.86-9.94-3.27-4.04-6.36-8.24-9.17-12.62,9.66-13.15,25.56-22.5,40.04-18.74,17.87,4.69,31.36-29.66,49.79-31.89,18.43-2.22,23.49,8.24,23.43,24.45-.06,16.24-19.14,36.33-18.68,41.55.46,5.22,10.09-9.41,15.03,10.28,4.51,17.84,6.73,24.69-.74,40.13Z"/>
          <path class="cls-7" d="M396.54,286.45c0,1.88-.03,3.77-.12,5.65-.65,17.32-4.35,33.86-10.59,49.11-10.68,13.92-23.65,23.8-32.94,28.34-15.03,7.32-27.87,31.15-47.07,36.67-19.2,5.49-46.09,22.35-37.5,3.89,8.61-18.46,14.14-23.71,11.33-28.83-2.84-5.15-14.04,3.67-16.98-3.67-2.93-7.35,5.12-19.45,16.98-29.42,11.82-9.94,16.02,2.28,14.17-6.17-1.85-8.43.4-17.97,17.26-33.37,16.89-15.4,9.17-22.72,8.09-50.1-.99-23.98,31.58-39.54,49.51-57.6,3.43,4.66,6.57,9.54,9.42,14.6,2.59,4.63,4.94,9.45,7.01,14.38,7.38,17.38,11.45,36.49,11.45,56.52Z"/>
          <path class="cls-7" d="M236.92,142.11c-4.32,4.66-11.61,11.73-21.95,19.2-17.87,12.93-20.06,45.38-31.61,56.67-11.58,11.27-17.35,1.91-27.41,18.71-10.06,16.76-24.88,19.23-26.24,24.76-1.39,5.49,19.82,2.75,17.6,15.77-1.98,11.79-17.01,30.74-38.18,37.32-.49-2.44-.93-4.91-1.27-7.41-.71-4.88-1.17-9.85-1.36-14.88-.09-1.94-.12-3.86-.12-5.8,0-64.08,41.55-118.44,99.15-137.67,10.03-3.33,20.53-5.62,31.39-6.67Z"/>
          <g>
            <path class="cls-15" d="M305.82,151.89c-5.25,10.87-.62,21.05-10.53,26.55-9.88,5.53-12.29-.9-16.48,5.71-4.23,6.61-1.67,10.43-4.97,20.9-3.3,10.43-26.02,26.76-35.75,38.49-9.72,11.76-24.94,22.01-29.73,8.83-4.75-13.21,21.11-32.47,25.31-41.83,4.23-9.35-12.66-18.71-7.5-32.81,3.58-9.88,17.07-26.95,24.88-36.36h.4c3.06,0,6.08.09,9.08.31,12.93.77,25.4,3.27,37.2,7.22,2.72.93,5.43,1.91,8.09,2.99Z"/>
            <path class="cls-11" d="M223.43,361.08c-20.56,28.24-2.22,28.24-13.21,52.07-1.82,3.95-3.61,7.5-5.31,10.74-3.46-1.17-6.88-2.47-10.22-3.92-16.11-6.85-30.71-16.51-43.22-28.43-4.54-4.29-8.8-8.89-12.75-13.77,15-20.59,23-23.68,37.38-17.41,16.85,7.32,37.41-38.15,49.51-38.89,12.1-.74,18.34,11.36-2.19,39.6Z"/>
            <path class="cls-16" d="M396.54,286.45c0,1.88-.03,3.77-.12,5.65-9.14,6.57-14.42,15.84-18.58,33.15-5.53,22.84-21.21,27.5-42.1,47.6-20.9,20.06-48.12,30.25-43.74,11.7,4.41-18.52,44.02-29.6,37.69-38.96-6.33-9.35-25.84,9.91-27.78-9.35-1.91-19.23,47.32-31.89,33.83-55.56-12.62-22.19,6.91-45.1,42.35-65.13,2.28,4.04,4.35,8.21,6.24,12.5,7.47,17.01,11.79,35.71,12.16,55.35.06,1.02.06,2.04.06,3.06Z"/>
            <path class="cls-4" d="M245.93,266.93c7.7-6.95,10.45-9.63,8.66-10.45-1.79-.83-3.16,3.58-5.64.83-2.48-2.75,19.53-26.27,22.14-25.03,2.61,1.24-3.03,5.64-.96,7.98,2.06,2.34,18.31-26.54,21.39-26.13,3.09.41,3.77,5.09-2.55,13.2-6.33,8.11-20.77,25.44-23.1,32.04-2.34,6.6,2.34-4.68,4.95-3.3,2.61,1.38.55,8.11-4.54,13.48-5.09,5.36-8.53,4.13-6.46,0,2.06-4.13-3.79-1.1-8.36,5.23-4.57,6.33-13.3-.83-5.53-7.84Z"/>
            <path class="cls-17" d="M282.1,351.01c-2.19,2.34-4.35,4.58-6.27,6.71-5.76,6.38-9.46,11.77-6.02,16.03,4.58,5.68,20.35-10.64,20.9-16.5.55-5.87-2.15-13.14-8.62-6.23Z"/>
            <path class="cls-5" d="M226.49,429.4c-4.72-.83-9.38-1.88-13.95-3.15,5.86-14.97,8.95-35.44,16.39-35.44,8.61,0,10.4,13.58-2.44,38.58Z"/>
            <path class="cls-2" d="M205.53,148.77c-4.48,8.4-10.59,21.36-14.38,35.9-6.61,25.31-15.4,30.1-23.09,26.98-7.72-3.12,5.49-27.32-3.3-21.08-8.83,6.24-3.3,20.16-13.95,37.04-10.62,16.85-29.69,19.79-32.63,37.75-2.93,18,21.64-4.38,18.34,13.95-2.32,12.9-14.48,18.55-28.65,27.81-.99-6.76-1.48-13.67-1.48-20.68,0-12.93,1.7-25.47,4.88-37.38,10.34-38.96,36.52-71.49,71.21-90.23,7.32-4.01,15.03-7.38,23.06-10.06Z"/>
          </g>
          <path class="cls-7" d="M264.31,286.45c-8.52,9.42-18,15.05-12.85,22.39,5.15,7.33.02,9.17,1.12,17.79,1.1,8.62,15.22,3.48,20.35-8.62,5.13-12.1-4.22-11.74,4.77-24.57,8.99-12.84-.92-20.78-13.39-6.98Z"/>
          <path class="cls-12" d="M182.47,158.84c-.71,3.49-4.44,8.33-8.74,10.99-8.8,5.49-8.8,13.49-20.1,17.07-11.27,3.58-6.61,9.08-10.71,32.72-3.06,17.5-19.08,17.69-31.67,29.45,10.34-38.96,36.52-71.49,71.21-90.23Z"/>
          <path class="cls-1" d="M396.48,283.39c-13.74,13.55-32.66,3.43-30.19,10.59,2.75,8.06,5.31,24.2-3.15,36.92-8.43,12.75-21.27,18.83-19.11,9.29,2.16-9.54-12.41-8.8,0-18.74,12.41-9.94,14.72-8.4,16.55-16.39,1.85-7.99-9.54-13.27-2.93-18.61,6.61-5.34,2.19-13.37-2.19-25.84-3.86-10.87,9.01-26.73,28.86-32.57,7.47,17.01,11.79,35.71,12.16,55.35Z"/>
          <path class="cls-20" d="M297.73,148.9c-1.11,4.38-2.5,8.89-3.92,11.85-3.67,7.72-12.81,11.02-22.44,15.4-9.63,4.41-5.49,9.91-10.46,19.82-4.94,9.91-11.82,13.46-15.06,6.33-3.27-7.16-.86-9.63.93-18.71,1.79-9.08,4.26-8.8,0-17.87-3.64-7.78,3.92-15.59,13.77-24.05,12.93.77,25.4,3.27,37.2,7.22Z"/>
          <path class="cls-14" d="M209.11,374.94c-4.57,6.88-14.11,3.21-17.59,9.26-3.49,6.05,6.05,15.03,4.57,27.32-.4,3.24-.86,6.05-1.39,8.46-16.11-6.85-30.71-16.51-43.22-28.43,8.33-13.24,9.11-18.64,18.03-14.51,10.28,4.78,10.09-.74,15.96.93,5.87,1.64,14.26-17.78,20.06-16.39,5.8,1.36,8.18,6.48,3.58,13.37Z"/>
        </g>
        <path class="cls-23" d="M145.05,77.86c-11.38-1.97-23.23,1.76-31.43,9.88-6.59,6.52-11.97,16.84-7.21,32,10.12,32.17,49,46.01,49,46.01,0,0,23.97-33.6,13.85-65.77-4.77-15.16-15.08-20.54-24.22-22.11ZM141.79,122.42c-5.53,1.74-11.43-1.34-13.17-6.87-1.75-5.55,1.34-11.43,6.87-13.17,5.53-1.74,11.43,1.32,13.17,6.87,1.74,5.53-1.34,11.43-6.87,13.17Z"/>
        <path class="cls-18" d="M445.52,146.39c-3.44-11.02-12.16-19.86-23.13-23.46-8.81-2.89-20.45-2.97-31.76,8.19-24.01,23.68-18.58,64.6-18.58,64.6,0,0,40.84,6,64.85-17.68,11.31-11.16,11.39-22.79,8.63-31.64ZM404.38,163.82c-4.07-4.13-4.02-10.78.1-14.86,4.15-4.09,10.78-4.03,14.86.1,4.07,4.13,4.04,10.77-.1,14.86-4.13,4.07-10.78,4.02-14.86-.1Z"/>
        <path class="cls-13" d="M173.31,146.54s33.27-44.19,99.15-41.41c65.88,2.78,96.19,65.52,96.19,65.52"/>
        <g>
          <path class="cls-22" d="M301.62,69.33c-3.27,3.05-6.93,3.26-10.55,3.69-3.62.48-7.25.85-10.89,1.2-7.28.67-14.59,1.06-21.97.98-1.33-.01-2.39-1.1-2.37-2.43.01-1.09.75-1.99,1.74-2.28,7.09-2.04,14.25-3.6,21.44-4.88,3.6-.64,7.2-1.23,10.82-1.73,3.61-.55,7.19-1.32,11.15.76,1.42.75,1.97,2.51,1.23,3.93-.15.3-.36.56-.59.78Z"/>
          <path class="cls-22" d="M280.06,46.93c3.79,7.13,5.43,14.54,6.56,22.03.9,7.52,1.28,15.11-.48,22.98l-.19.83c-.28,1.24-1.51,2.02-2.75,1.74-.96-.22-1.65-1.01-1.78-1.94l-6.07-45.01c-.17-1.26.71-2.42,1.97-2.59.98-.13,1.9.37,2.34,1.19l.4.76Z"/>
          <path class="cls-22" d="M262.15,61.27c1.19,1.67,1.87,3.41,2.48,5.16.61,1.75.83,3.55,1.26,5.33.05,1.83.33,3.62.2,5.47-.12,1.85-.32,3.71-1.02,5.64l-.26.71c-.27.75-1.1,1.14-1.85.86-.52-.19-.87-.65-.94-1.16l-2.91-21.6c-.11-.79.45-1.52,1.24-1.63.55-.07,1.07.17,1.37.59l.44.62Z"/>
        </g>
      </g>
    </g>
  </g>
</svg>